<mxfile host="app.diagrams.net" modified="2021-11-21T20:13:14.879Z" agent="5.0 (Windows NT 10.0; Win64; x64) AppleWebKit/537.36 (KHTML, like Gecko) Chrome/96.0.4664.45 Safari/537.36" etag="vj1J_9b7rja-IKLutDtl" version="15.8.3" type="github" pages="4">
  <diagram id="fqSInsKK7K77jijg4EdJ" name="Page-1">
    <mxGraphModel dx="2919" dy="1033" grid="1" gridSize="10" guides="1" tooltips="1" connect="1" arrows="1" fold="1" page="1" pageScale="1" pageWidth="850" pageHeight="1100" math="0" shadow="0">
      <root>
        <mxCell id="0" />
        <mxCell id="1" parent="0" />
        <mxCell id="3fk1XOqOfCz5VzmiZX5h-2" value="&lt;h1&gt;&amp;nbsp; &amp;nbsp; &amp;nbsp;login&amp;nbsp; - 40m&amp;nbsp;&lt;br&gt;&lt;/h1&gt;&lt;h1&gt;&amp;nbsp; &amp;nbsp; &amp;nbsp;registration - 10&lt;br&gt;&amp;nbsp; &amp;nbsp; &amp;nbsp;create a cart - 7m&amp;nbsp;&lt;br&gt;&amp;nbsp; &amp;nbsp; &amp;nbsp;payment - 4m&lt;br&gt;&amp;nbsp; &amp;nbsp; &amp;nbsp;order - 3.5m&lt;/h1&gt;" style="text;html=1;align=center;verticalAlign=middle;resizable=0;points=[];autosize=1;strokeColor=none;fillColor=none;" parent="1" vertex="1">
          <mxGeometry x="-605" y="155" width="250" height="120" as="geometry" />
        </mxCell>
        <mxCell id="3fk1XOqOfCz5VzmiZX5h-3" value="" style="endArrow=classic;html=1;" parent="1" source="3fk1XOqOfCz5VzmiZX5h-2" edge="1">
          <mxGeometry width="50" height="50" relative="1" as="geometry">
            <mxPoint x="400" y="410" as="sourcePoint" />
            <mxPoint x="-160" y="220" as="targetPoint" />
          </mxGeometry>
        </mxCell>
        <mxCell id="3fk1XOqOfCz5VzmiZX5h-4" value="&lt;h1&gt;git&lt;/h1&gt;" style="shape=cylinder3;whiteSpace=wrap;html=1;boundedLbl=1;backgroundOutline=1;size=15;" parent="1" vertex="1">
          <mxGeometry x="-160" y="180" width="80" height="80" as="geometry" />
        </mxCell>
        <mxCell id="3fk1XOqOfCz5VzmiZX5h-5" value="&lt;h1&gt;ebay.war&lt;/h1&gt;" style="shape=cube;whiteSpace=wrap;html=1;boundedLbl=1;backgroundOutline=1;darkOpacity=0.05;darkOpacity2=0.1;" parent="1" vertex="1">
          <mxGeometry x="60" y="190" width="140" height="80" as="geometry" />
        </mxCell>
        <mxCell id="3fk1XOqOfCz5VzmiZX5h-6" value="" style="endArrow=classic;html=1;" parent="1" target="3fk1XOqOfCz5VzmiZX5h-5" edge="1">
          <mxGeometry width="50" height="50" relative="1" as="geometry">
            <mxPoint x="-80" y="230" as="sourcePoint" />
            <mxPoint x="-30" y="180" as="targetPoint" />
          </mxGeometry>
        </mxCell>
        <mxCell id="3fk1XOqOfCz5VzmiZX5h-7" value="&lt;h1&gt;appServers1&lt;/h1&gt;" style="rounded=0;whiteSpace=wrap;html=1;" parent="1" vertex="1">
          <mxGeometry x="530" y="205" width="210" height="90" as="geometry" />
        </mxCell>
        <mxCell id="3fk1XOqOfCz5VzmiZX5h-8" value="" style="endArrow=classic;html=1;" parent="1" edge="1">
          <mxGeometry width="50" height="50" relative="1" as="geometry">
            <mxPoint x="200" y="250" as="sourcePoint" />
            <mxPoint x="320" y="246" as="targetPoint" />
          </mxGeometry>
        </mxCell>
        <mxCell id="3fk1XOqOfCz5VzmiZX5h-9" value="&lt;h1&gt;Ansible&lt;/h1&gt;" style="rounded=0;whiteSpace=wrap;html=1;" parent="1" vertex="1">
          <mxGeometry x="320" y="220" width="120" height="60" as="geometry" />
        </mxCell>
        <mxCell id="3fk1XOqOfCz5VzmiZX5h-11" value="&lt;h1&gt;appServers2&lt;/h1&gt;" style="rounded=0;whiteSpace=wrap;html=1;" parent="1" vertex="1">
          <mxGeometry x="530" y="350" width="210" height="90" as="geometry" />
        </mxCell>
        <mxCell id="3fk1XOqOfCz5VzmiZX5h-12" value="&lt;h1&gt;appServers3&lt;/h1&gt;" style="rounded=0;whiteSpace=wrap;html=1;" parent="1" vertex="1">
          <mxGeometry x="540" y="510" width="210" height="90" as="geometry" />
        </mxCell>
        <mxCell id="3fk1XOqOfCz5VzmiZX5h-13" value="" style="endArrow=classic;html=1;exitX=1;exitY=1;exitDx=0;exitDy=0;entryX=0;entryY=0.75;entryDx=0;entryDy=0;" parent="1" source="3fk1XOqOfCz5VzmiZX5h-9" target="3fk1XOqOfCz5VzmiZX5h-11" edge="1">
          <mxGeometry width="50" height="50" relative="1" as="geometry">
            <mxPoint x="270" y="440" as="sourcePoint" />
            <mxPoint x="320" y="390" as="targetPoint" />
          </mxGeometry>
        </mxCell>
        <mxCell id="3fk1XOqOfCz5VzmiZX5h-14" value="" style="endArrow=classic;html=1;" parent="1" edge="1">
          <mxGeometry width="50" height="50" relative="1" as="geometry">
            <mxPoint x="440" y="260" as="sourcePoint" />
            <mxPoint x="530" y="240" as="targetPoint" />
          </mxGeometry>
        </mxCell>
        <mxCell id="3fk1XOqOfCz5VzmiZX5h-15" value="" style="endArrow=classic;html=1;exitX=0.565;exitY=1.004;exitDx=0;exitDy=0;exitPerimeter=0;entryX=0;entryY=0.75;entryDx=0;entryDy=0;" parent="1" source="3fk1XOqOfCz5VzmiZX5h-9" target="3fk1XOqOfCz5VzmiZX5h-12" edge="1">
          <mxGeometry width="50" height="50" relative="1" as="geometry">
            <mxPoint x="425" y="490" as="sourcePoint" />
            <mxPoint x="475" y="440" as="targetPoint" />
          </mxGeometry>
        </mxCell>
        <mxCell id="3fk1XOqOfCz5VzmiZX5h-16" value="Actor" style="shape=umlActor;verticalLabelPosition=bottom;verticalAlign=top;html=1;outlineConnect=0;" parent="1" vertex="1">
          <mxGeometry x="-420" y="480" width="30" height="60" as="geometry" />
        </mxCell>
        <mxCell id="3fk1XOqOfCz5VzmiZX5h-17" value="Actor" style="shape=umlActor;verticalLabelPosition=bottom;verticalAlign=top;html=1;outlineConnect=0;" parent="1" vertex="1">
          <mxGeometry x="-400" y="480" width="30" height="60" as="geometry" />
        </mxCell>
        <mxCell id="3fk1XOqOfCz5VzmiZX5h-18" value="Actor" style="shape=umlActor;verticalLabelPosition=bottom;verticalAlign=top;html=1;outlineConnect=0;" parent="1" vertex="1">
          <mxGeometry x="-390" y="480" width="30" height="60" as="geometry" />
        </mxCell>
        <mxCell id="3fk1XOqOfCz5VzmiZX5h-19" value="Actor" style="shape=umlActor;verticalLabelPosition=bottom;verticalAlign=top;html=1;outlineConnect=0;" parent="1" vertex="1">
          <mxGeometry x="-350" y="460" width="30" height="60" as="geometry" />
        </mxCell>
        <mxCell id="3fk1XOqOfCz5VzmiZX5h-20" value="" style="endArrow=classic;html=1;" parent="1" source="3fk1XOqOfCz5VzmiZX5h-19" target="3fk1XOqOfCz5VzmiZX5h-21" edge="1">
          <mxGeometry width="50" height="50" relative="1" as="geometry">
            <mxPoint x="270" y="450" as="sourcePoint" />
            <mxPoint x="60" y="486" as="targetPoint" />
          </mxGeometry>
        </mxCell>
        <mxCell id="3fk1XOqOfCz5VzmiZX5h-21" value="&lt;h1&gt;LB/Web Server&lt;/h1&gt;" style="rounded=0;whiteSpace=wrap;html=1;" parent="1" vertex="1">
          <mxGeometry y="440" width="170" height="76" as="geometry" />
        </mxCell>
        <mxCell id="3fk1XOqOfCz5VzmiZX5h-22" value="" style="endArrow=classic;html=1;entryX=-0.02;entryY=0.853;entryDx=0;entryDy=0;entryPerimeter=0;" parent="1" target="3fk1XOqOfCz5VzmiZX5h-7" edge="1">
          <mxGeometry width="50" height="50" relative="1" as="geometry">
            <mxPoint x="170" y="470" as="sourcePoint" />
            <mxPoint x="220" y="420" as="targetPoint" />
          </mxGeometry>
        </mxCell>
        <mxCell id="3fk1XOqOfCz5VzmiZX5h-23" value="" style="endArrow=classic;html=1;entryX=0;entryY=0.75;entryDx=0;entryDy=0;" parent="1" target="3fk1XOqOfCz5VzmiZX5h-11" edge="1">
          <mxGeometry width="50" height="50" relative="1" as="geometry">
            <mxPoint x="170" y="510" as="sourcePoint" />
            <mxPoint x="220" y="460" as="targetPoint" />
          </mxGeometry>
        </mxCell>
        <mxCell id="3fk1XOqOfCz5VzmiZX5h-24" value="" style="endArrow=classic;html=1;exitX=0.971;exitY=1.028;exitDx=0;exitDy=0;exitPerimeter=0;entryX=-0.018;entryY=0.91;entryDx=0;entryDy=0;entryPerimeter=0;" parent="1" source="3fk1XOqOfCz5VzmiZX5h-21" target="3fk1XOqOfCz5VzmiZX5h-12" edge="1">
          <mxGeometry width="50" height="50" relative="1" as="geometry">
            <mxPoint x="440" y="610" as="sourcePoint" />
            <mxPoint x="490" y="560" as="targetPoint" />
          </mxGeometry>
        </mxCell>
        <mxCell id="3fk1XOqOfCz5VzmiZX5h-31" value="" style="edgeStyle=orthogonalEdgeStyle;rounded=0;orthogonalLoop=1;jettySize=auto;html=1;" parent="1" source="3fk1XOqOfCz5VzmiZX5h-25" edge="1">
          <mxGeometry relative="1" as="geometry">
            <mxPoint x="90" y="730" as="targetPoint" />
          </mxGeometry>
        </mxCell>
        <mxCell id="3fk1XOqOfCz5VzmiZX5h-25" value="&lt;h1&gt;login&lt;/h1&gt;" style="shape=cylinder3;whiteSpace=wrap;html=1;boundedLbl=1;backgroundOutline=1;size=15;" parent="1" vertex="1">
          <mxGeometry x="-105" y="690" width="60" height="80" as="geometry" />
        </mxCell>
        <mxCell id="3fk1XOqOfCz5VzmiZX5h-34" value="" style="edgeStyle=orthogonalEdgeStyle;rounded=0;orthogonalLoop=1;jettySize=auto;html=1;" parent="1" source="3fk1XOqOfCz5VzmiZX5h-26" target="3fk1XOqOfCz5VzmiZX5h-35" edge="1">
          <mxGeometry relative="1" as="geometry">
            <mxPoint x="35" y="870" as="targetPoint" />
          </mxGeometry>
        </mxCell>
        <mxCell id="3fk1XOqOfCz5VzmiZX5h-26" value="&lt;h1&gt;reg&lt;/h1&gt;" style="shape=cylinder3;whiteSpace=wrap;html=1;boundedLbl=1;backgroundOutline=1;size=15;" parent="1" vertex="1">
          <mxGeometry x="-105" y="830" width="60" height="80" as="geometry" />
        </mxCell>
        <mxCell id="3fk1XOqOfCz5VzmiZX5h-37" value="" style="edgeStyle=orthogonalEdgeStyle;rounded=0;orthogonalLoop=1;jettySize=auto;html=1;" parent="1" source="3fk1XOqOfCz5VzmiZX5h-27" edge="1">
          <mxGeometry relative="1" as="geometry">
            <mxPoint x="100" y="990" as="targetPoint" />
          </mxGeometry>
        </mxCell>
        <mxCell id="3fk1XOqOfCz5VzmiZX5h-27" value="&lt;h1&gt;cart&lt;/h1&gt;" style="shape=cylinder3;whiteSpace=wrap;html=1;boundedLbl=1;backgroundOutline=1;size=15;" parent="1" vertex="1">
          <mxGeometry x="-110" y="950" width="60" height="80" as="geometry" />
        </mxCell>
        <mxCell id="3fk1XOqOfCz5VzmiZX5h-40" value="" style="edgeStyle=orthogonalEdgeStyle;rounded=0;orthogonalLoop=1;jettySize=auto;html=1;" parent="1" source="3fk1XOqOfCz5VzmiZX5h-28" target="3fk1XOqOfCz5VzmiZX5h-39" edge="1">
          <mxGeometry relative="1" as="geometry" />
        </mxCell>
        <mxCell id="3fk1XOqOfCz5VzmiZX5h-28" value="&lt;h1&gt;pay&lt;/h1&gt;" style="shape=cylinder3;whiteSpace=wrap;html=1;boundedLbl=1;backgroundOutline=1;size=15;" parent="1" vertex="1">
          <mxGeometry x="-110" y="1090" width="60" height="80" as="geometry" />
        </mxCell>
        <mxCell id="3fk1XOqOfCz5VzmiZX5h-42" value="" style="edgeStyle=orthogonalEdgeStyle;rounded=0;orthogonalLoop=1;jettySize=auto;html=1;" parent="1" source="3fk1XOqOfCz5VzmiZX5h-29" target="3fk1XOqOfCz5VzmiZX5h-41" edge="1">
          <mxGeometry relative="1" as="geometry" />
        </mxCell>
        <mxCell id="3fk1XOqOfCz5VzmiZX5h-29" value="&lt;h1&gt;orders&lt;/h1&gt;" style="shape=cylinder3;whiteSpace=wrap;html=1;boundedLbl=1;backgroundOutline=1;size=15;" parent="1" vertex="1">
          <mxGeometry x="-120" y="1210" width="90" height="80" as="geometry" />
        </mxCell>
        <mxCell id="3fk1XOqOfCz5VzmiZX5h-44" value="" style="edgeStyle=orthogonalEdgeStyle;rounded=0;orthogonalLoop=1;jettySize=auto;html=1;" parent="1" source="3fk1XOqOfCz5VzmiZX5h-32" target="3fk1XOqOfCz5VzmiZX5h-43" edge="1">
          <mxGeometry relative="1" as="geometry" />
        </mxCell>
        <mxCell id="3fk1XOqOfCz5VzmiZX5h-32" value="&lt;h1&gt;login.jar&lt;/h1&gt;" style="shape=cube;whiteSpace=wrap;html=1;boundedLbl=1;backgroundOutline=1;darkOpacity=0.05;darkOpacity2=0.1;" parent="1" vertex="1">
          <mxGeometry x="100" y="690" width="120" height="80" as="geometry" />
        </mxCell>
        <mxCell id="3fk1XOqOfCz5VzmiZX5h-47" value="" style="edgeStyle=orthogonalEdgeStyle;rounded=0;orthogonalLoop=1;jettySize=auto;html=1;" parent="1" source="3fk1XOqOfCz5VzmiZX5h-35" edge="1">
          <mxGeometry relative="1" as="geometry">
            <mxPoint x="330" y="870" as="targetPoint" />
          </mxGeometry>
        </mxCell>
        <mxCell id="3fk1XOqOfCz5VzmiZX5h-35" value="&lt;h1&gt;reg.jar&lt;/h1&gt;" style="shape=cube;whiteSpace=wrap;html=1;boundedLbl=1;backgroundOutline=1;darkOpacity=0.05;darkOpacity2=0.1;" parent="1" vertex="1">
          <mxGeometry x="80" y="830" width="120" height="80" as="geometry" />
        </mxCell>
        <mxCell id="3fk1XOqOfCz5VzmiZX5h-50" value="" style="edgeStyle=orthogonalEdgeStyle;rounded=0;orthogonalLoop=1;jettySize=auto;html=1;" parent="1" source="3fk1XOqOfCz5VzmiZX5h-38" target="3fk1XOqOfCz5VzmiZX5h-48" edge="1">
          <mxGeometry relative="1" as="geometry">
            <mxPoint x="290" y="990" as="targetPoint" />
          </mxGeometry>
        </mxCell>
        <mxCell id="3fk1XOqOfCz5VzmiZX5h-38" value="&lt;h1&gt;cart.jar&lt;/h1&gt;" style="shape=cube;whiteSpace=wrap;html=1;boundedLbl=1;backgroundOutline=1;darkOpacity=0.05;darkOpacity2=0.1;" parent="1" vertex="1">
          <mxGeometry x="90" y="950" width="120" height="80" as="geometry" />
        </mxCell>
        <mxCell id="3fk1XOqOfCz5VzmiZX5h-53" value="" style="edgeStyle=orthogonalEdgeStyle;rounded=0;orthogonalLoop=1;jettySize=auto;html=1;" parent="1" source="3fk1XOqOfCz5VzmiZX5h-39" target="3fk1XOqOfCz5VzmiZX5h-51" edge="1">
          <mxGeometry relative="1" as="geometry">
            <mxPoint x="320" y="1130" as="targetPoint" />
          </mxGeometry>
        </mxCell>
        <mxCell id="3fk1XOqOfCz5VzmiZX5h-39" value="&lt;h1&gt;pay.jar&lt;/h1&gt;" style="shape=cube;whiteSpace=wrap;html=1;boundedLbl=1;backgroundOutline=1;darkOpacity=0.05;darkOpacity2=0.1;" parent="1" vertex="1">
          <mxGeometry x="120" y="1090" width="120" height="80" as="geometry" />
        </mxCell>
        <mxCell id="3fk1XOqOfCz5VzmiZX5h-56" value="" style="edgeStyle=orthogonalEdgeStyle;rounded=0;orthogonalLoop=1;jettySize=auto;html=1;" parent="1" source="3fk1XOqOfCz5VzmiZX5h-41" edge="1">
          <mxGeometry relative="1" as="geometry">
            <mxPoint x="410" y="1250" as="targetPoint" />
          </mxGeometry>
        </mxCell>
        <mxCell id="3fk1XOqOfCz5VzmiZX5h-41" value="&lt;h1&gt;order.jar&lt;/h1&gt;" style="shape=cube;whiteSpace=wrap;html=1;boundedLbl=1;backgroundOutline=1;darkOpacity=0.05;darkOpacity2=0.1;" parent="1" vertex="1">
          <mxGeometry x="140" y="1210" width="120" height="80" as="geometry" />
        </mxCell>
        <mxCell id="3fk1XOqOfCz5VzmiZX5h-43" value="&lt;h1&gt;login&amp;nbsp; dockerImage&lt;/h1&gt;" style="shape=cube;whiteSpace=wrap;html=1;boundedLbl=1;backgroundOutline=1;darkOpacity=0.05;darkOpacity2=0.1;" parent="1" vertex="1">
          <mxGeometry x="300" y="690" width="190" height="80" as="geometry" />
        </mxCell>
        <mxCell id="3fk1XOqOfCz5VzmiZX5h-45" value="&lt;h1&gt;reg dockerImage&lt;/h1&gt;" style="shape=cube;whiteSpace=wrap;html=1;boundedLbl=1;backgroundOutline=1;darkOpacity=0.05;darkOpacity2=0.1;" parent="1" vertex="1">
          <mxGeometry x="330" y="830" width="190" height="80" as="geometry" />
        </mxCell>
        <mxCell id="3fk1XOqOfCz5VzmiZX5h-48" value="&lt;h1&gt;cart dockerImage&lt;/h1&gt;" style="shape=cube;whiteSpace=wrap;html=1;boundedLbl=1;backgroundOutline=1;darkOpacity=0.05;darkOpacity2=0.1;" parent="1" vertex="1">
          <mxGeometry x="380" y="950" width="190" height="80" as="geometry" />
        </mxCell>
        <mxCell id="3fk1XOqOfCz5VzmiZX5h-51" value="&lt;h1&gt;pay dockerImage&lt;/h1&gt;" style="shape=cube;whiteSpace=wrap;html=1;boundedLbl=1;backgroundOutline=1;darkOpacity=0.05;darkOpacity2=0.1;" parent="1" vertex="1">
          <mxGeometry x="385" y="1080" width="190" height="80" as="geometry" />
        </mxCell>
        <mxCell id="3fk1XOqOfCz5VzmiZX5h-54" value="&lt;h1&gt;order dockerImage&lt;/h1&gt;" style="shape=cube;whiteSpace=wrap;html=1;boundedLbl=1;backgroundOutline=1;darkOpacity=0.05;darkOpacity2=0.1;" parent="1" vertex="1">
          <mxGeometry x="400" y="1220" width="190" height="80" as="geometry" />
        </mxCell>
        <mxCell id="3fk1XOqOfCz5VzmiZX5h-64" value="&lt;h1&gt;docker enginer&lt;/h1&gt;" style="rounded=0;whiteSpace=wrap;html=1;" parent="1" vertex="1">
          <mxGeometry x="-470" y="1711" width="1070" height="90" as="geometry" />
        </mxCell>
        <mxCell id="3fk1XOqOfCz5VzmiZX5h-65" value="&lt;h1&gt;login container&lt;/h1&gt;" style="shape=cube;whiteSpace=wrap;html=1;boundedLbl=1;backgroundOutline=1;darkOpacity=0.05;darkOpacity2=0.1;" parent="1" vertex="1">
          <mxGeometry x="-415" y="1631" width="155" height="80" as="geometry" />
        </mxCell>
        <mxCell id="3fk1XOqOfCz5VzmiZX5h-66" value="&lt;h1&gt;registration container&lt;/h1&gt;" style="shape=cube;whiteSpace=wrap;html=1;boundedLbl=1;backgroundOutline=1;darkOpacity=0.05;darkOpacity2=0.1;" parent="1" vertex="1">
          <mxGeometry x="-230" y="1631" width="150" height="80" as="geometry" />
        </mxCell>
        <mxCell id="3fk1XOqOfCz5VzmiZX5h-67" value="&lt;h1&gt;cart&amp;nbsp; &amp;nbsp; container&lt;/h1&gt;" style="shape=cube;whiteSpace=wrap;html=1;boundedLbl=1;backgroundOutline=1;darkOpacity=0.05;darkOpacity2=0.1;" parent="1" vertex="1">
          <mxGeometry x="-50" y="1631" width="140" height="80" as="geometry" />
        </mxCell>
        <mxCell id="3fk1XOqOfCz5VzmiZX5h-68" value="&lt;h1&gt;payment container&lt;/h1&gt;" style="shape=cube;whiteSpace=wrap;html=1;boundedLbl=1;backgroundOutline=1;darkOpacity=0.05;darkOpacity2=0.1;" parent="1" vertex="1">
          <mxGeometry x="120" y="1631" width="140" height="80" as="geometry" />
        </mxCell>
        <mxCell id="3fk1XOqOfCz5VzmiZX5h-69" value="&lt;h1&gt;order container&lt;/h1&gt;" style="shape=cube;whiteSpace=wrap;html=1;boundedLbl=1;backgroundOutline=1;darkOpacity=0.05;darkOpacity2=0.1;" parent="1" vertex="1">
          <mxGeometry x="280" y="1631" width="140" height="80" as="geometry" />
        </mxCell>
        <mxCell id="3fk1XOqOfCz5VzmiZX5h-70" value="&lt;h1&gt;db container&lt;/h1&gt;" style="shape=cube;whiteSpace=wrap;html=1;boundedLbl=1;backgroundOutline=1;darkOpacity=0.05;darkOpacity2=0.1;" parent="1" vertex="1">
          <mxGeometry x="440" y="1631" width="140" height="80" as="geometry" />
        </mxCell>
        <mxCell id="3fk1XOqOfCz5VzmiZX5h-71" value="" style="endArrow=classic;html=1;" parent="1" edge="1">
          <mxGeometry width="50" height="50" relative="1" as="geometry">
            <mxPoint x="-410" y="1651" as="sourcePoint" />
            <mxPoint x="-410" y="1391" as="targetPoint" />
          </mxGeometry>
        </mxCell>
        <mxCell id="3fk1XOqOfCz5VzmiZX5h-72" value="" style="endArrow=classic;html=1;" parent="1" edge="1">
          <mxGeometry width="50" height="50" relative="1" as="geometry">
            <mxPoint x="-420" y="1391" as="sourcePoint" />
            <mxPoint x="570" y="1391" as="targetPoint" />
          </mxGeometry>
        </mxCell>
        <mxCell id="3fk1XOqOfCz5VzmiZX5h-74" value="&lt;h2&gt;Deploy them in the same network&lt;/h2&gt;" style="edgeLabel;html=1;align=center;verticalAlign=middle;resizable=0;points=[];" parent="3fk1XOqOfCz5VzmiZX5h-72" vertex="1" connectable="0">
          <mxGeometry x="-0.0765" y="1" relative="1" as="geometry">
            <mxPoint as="offset" />
          </mxGeometry>
        </mxCell>
        <mxCell id="3fk1XOqOfCz5VzmiZX5h-77" value="&lt;h2&gt;Defualt bridge network&lt;/h2&gt;" style="edgeLabel;html=1;align=center;verticalAlign=middle;resizable=0;points=[];" parent="3fk1XOqOfCz5VzmiZX5h-72" vertex="1" connectable="0">
          <mxGeometry x="-0.0765" y="1" relative="1" as="geometry">
            <mxPoint x="3" y="40" as="offset" />
          </mxGeometry>
        </mxCell>
        <mxCell id="3fk1XOqOfCz5VzmiZX5h-90" value="&lt;h2&gt;containers cummincate using container IPs ONLY&lt;/h2&gt;" style="edgeLabel;html=1;align=center;verticalAlign=middle;resizable=0;points=[];" parent="3fk1XOqOfCz5VzmiZX5h-72" vertex="1" connectable="0">
          <mxGeometry x="-0.0765" y="1" relative="1" as="geometry">
            <mxPoint x="-7" y="120" as="offset" />
          </mxGeometry>
        </mxCell>
        <mxCell id="3fk1XOqOfCz5VzmiZX5h-91" value="&lt;h2&gt;containers cummincate using container IPs and Names&amp;nbsp;&lt;/h2&gt;" style="edgeLabel;html=1;align=center;verticalAlign=middle;resizable=0;points=[];" parent="3fk1XOqOfCz5VzmiZX5h-72" vertex="1" connectable="0">
          <mxGeometry x="-0.0765" y="1" relative="1" as="geometry">
            <mxPoint x="-17" y="710" as="offset" />
          </mxGeometry>
        </mxCell>
        <mxCell id="3fk1XOqOfCz5VzmiZX5h-92" value="&lt;h2&gt;containers cummincate using container IPs and Names&amp;nbsp;&lt;/h2&gt;" style="edgeLabel;html=1;align=center;verticalAlign=middle;resizable=0;points=[];" parent="3fk1XOqOfCz5VzmiZX5h-72" vertex="1" connectable="0">
          <mxGeometry x="-0.0765" y="1" relative="1" as="geometry">
            <mxPoint x="-32" y="1190" as="offset" />
          </mxGeometry>
        </mxCell>
        <mxCell id="3fk1XOqOfCz5VzmiZX5h-73" value="" style="endArrow=classic;html=1;" parent="1" edge="1">
          <mxGeometry width="50" height="50" relative="1" as="geometry">
            <mxPoint x="560" y="1401" as="sourcePoint" />
            <mxPoint x="570" y="1651" as="targetPoint" />
          </mxGeometry>
        </mxCell>
        <mxCell id="3fk1XOqOfCz5VzmiZX5h-75" value="&lt;h1&gt;1) Code maintenance&amp;nbsp; = 50k&amp;nbsp; &amp;nbsp; --- 500L&lt;/h1&gt;" style="text;html=1;align=center;verticalAlign=middle;resizable=0;points=[];autosize=1;strokeColor=none;fillColor=none;" parent="1" vertex="1">
          <mxGeometry x="-490" y="1845" width="440" height="50" as="geometry" />
        </mxCell>
        <mxCell id="3fk1XOqOfCz5VzmiZX5h-76" value="&lt;h1&gt;2) SCALING&amp;nbsp;&lt;/h1&gt;" style="text;html=1;align=center;verticalAlign=middle;resizable=0;points=[];autosize=1;strokeColor=none;fillColor=none;" parent="1" vertex="1">
          <mxGeometry x="-480" y="1900" width="160" height="50" as="geometry" />
        </mxCell>
        <mxCell id="3fk1XOqOfCz5VzmiZX5h-78" value="&lt;h1&gt;docker enginer - 1&lt;/h1&gt;" style="rounded=0;whiteSpace=wrap;html=1;" parent="1" vertex="1">
          <mxGeometry x="-495" y="2311" width="1070" height="90" as="geometry" />
        </mxCell>
        <mxCell id="3fk1XOqOfCz5VzmiZX5h-79" value="&lt;h1&gt;login container&lt;/h1&gt;" style="shape=cube;whiteSpace=wrap;html=1;boundedLbl=1;backgroundOutline=1;darkOpacity=0.05;darkOpacity2=0.1;" parent="1" vertex="1">
          <mxGeometry x="-440" y="2231" width="155" height="80" as="geometry" />
        </mxCell>
        <mxCell id="3fk1XOqOfCz5VzmiZX5h-80" value="&lt;h1&gt;registration container&lt;/h1&gt;" style="shape=cube;whiteSpace=wrap;html=1;boundedLbl=1;backgroundOutline=1;darkOpacity=0.05;darkOpacity2=0.1;" parent="1" vertex="1">
          <mxGeometry x="-255" y="2231" width="150" height="80" as="geometry" />
        </mxCell>
        <mxCell id="3fk1XOqOfCz5VzmiZX5h-81" value="&lt;h1&gt;cart&amp;nbsp; &amp;nbsp; container&lt;/h1&gt;" style="shape=cube;whiteSpace=wrap;html=1;boundedLbl=1;backgroundOutline=1;darkOpacity=0.05;darkOpacity2=0.1;" parent="1" vertex="1">
          <mxGeometry x="-75" y="2231" width="140" height="80" as="geometry" />
        </mxCell>
        <mxCell id="3fk1XOqOfCz5VzmiZX5h-82" value="&lt;h1&gt;payment container&lt;/h1&gt;" style="shape=cube;whiteSpace=wrap;html=1;boundedLbl=1;backgroundOutline=1;darkOpacity=0.05;darkOpacity2=0.1;" parent="1" vertex="1">
          <mxGeometry x="95" y="2231" width="140" height="80" as="geometry" />
        </mxCell>
        <mxCell id="3fk1XOqOfCz5VzmiZX5h-83" value="&lt;h1&gt;order container&lt;/h1&gt;" style="shape=cube;whiteSpace=wrap;html=1;boundedLbl=1;backgroundOutline=1;darkOpacity=0.05;darkOpacity2=0.1;" parent="1" vertex="1">
          <mxGeometry x="255" y="2231" width="140" height="80" as="geometry" />
        </mxCell>
        <mxCell id="3fk1XOqOfCz5VzmiZX5h-84" value="&lt;h1&gt;db container&lt;/h1&gt;" style="shape=cube;whiteSpace=wrap;html=1;boundedLbl=1;backgroundOutline=1;darkOpacity=0.05;darkOpacity2=0.1;" parent="1" vertex="1">
          <mxGeometry x="415" y="2231" width="140" height="80" as="geometry" />
        </mxCell>
        <mxCell id="3fk1XOqOfCz5VzmiZX5h-85" value="" style="endArrow=classic;html=1;" parent="1" edge="1">
          <mxGeometry width="50" height="50" relative="1" as="geometry">
            <mxPoint x="-435" y="2251" as="sourcePoint" />
            <mxPoint x="-435" y="1991" as="targetPoint" />
          </mxGeometry>
        </mxCell>
        <mxCell id="3fk1XOqOfCz5VzmiZX5h-86" value="" style="endArrow=classic;html=1;" parent="1" edge="1">
          <mxGeometry width="50" height="50" relative="1" as="geometry">
            <mxPoint x="-445" y="1991" as="sourcePoint" />
            <mxPoint x="545" y="1991" as="targetPoint" />
          </mxGeometry>
        </mxCell>
        <mxCell id="3fk1XOqOfCz5VzmiZX5h-87" value="&lt;h2&gt;Deploy them in the same network&lt;/h2&gt;" style="edgeLabel;html=1;align=center;verticalAlign=middle;resizable=0;points=[];" parent="3fk1XOqOfCz5VzmiZX5h-86" vertex="1" connectable="0">
          <mxGeometry x="-0.0765" y="1" relative="1" as="geometry">
            <mxPoint as="offset" />
          </mxGeometry>
        </mxCell>
        <mxCell id="3fk1XOqOfCz5VzmiZX5h-88" value="&lt;h1&gt;custom bridge network&lt;/h1&gt;" style="edgeLabel;html=1;align=center;verticalAlign=middle;resizable=0;points=[];" parent="3fk1XOqOfCz5VzmiZX5h-86" vertex="1" connectable="0">
          <mxGeometry x="-0.0765" y="1" relative="1" as="geometry">
            <mxPoint x="3" y="40" as="offset" />
          </mxGeometry>
        </mxCell>
        <mxCell id="3fk1XOqOfCz5VzmiZX5h-89" value="" style="endArrow=classic;html=1;" parent="1" edge="1">
          <mxGeometry width="50" height="50" relative="1" as="geometry">
            <mxPoint x="535" y="2001" as="sourcePoint" />
            <mxPoint x="545" y="2251" as="targetPoint" />
          </mxGeometry>
        </mxCell>
        <mxCell id="3fk1XOqOfCz5VzmiZX5h-93" value="&lt;h1&gt;docker enginer -2&lt;/h1&gt;" style="rounded=0;whiteSpace=wrap;html=1;" parent="1" vertex="1">
          <mxGeometry x="-510" y="2791" width="1070" height="90" as="geometry" />
        </mxCell>
        <mxCell id="3fk1XOqOfCz5VzmiZX5h-94" value="&lt;h1&gt;login container&lt;/h1&gt;" style="shape=cube;whiteSpace=wrap;html=1;boundedLbl=1;backgroundOutline=1;darkOpacity=0.05;darkOpacity2=0.1;" parent="1" vertex="1">
          <mxGeometry x="-455" y="2711" width="155" height="80" as="geometry" />
        </mxCell>
        <mxCell id="3fk1XOqOfCz5VzmiZX5h-95" value="&lt;h1&gt;registration container&lt;/h1&gt;" style="shape=cube;whiteSpace=wrap;html=1;boundedLbl=1;backgroundOutline=1;darkOpacity=0.05;darkOpacity2=0.1;" parent="1" vertex="1">
          <mxGeometry x="-270" y="2711" width="150" height="80" as="geometry" />
        </mxCell>
        <mxCell id="3fk1XOqOfCz5VzmiZX5h-96" value="&lt;h1&gt;cart&amp;nbsp; &amp;nbsp; container&lt;/h1&gt;" style="shape=cube;whiteSpace=wrap;html=1;boundedLbl=1;backgroundOutline=1;darkOpacity=0.05;darkOpacity2=0.1;" parent="1" vertex="1">
          <mxGeometry x="-90" y="2711" width="140" height="80" as="geometry" />
        </mxCell>
        <mxCell id="3fk1XOqOfCz5VzmiZX5h-97" value="&lt;h1&gt;payment container&lt;/h1&gt;" style="shape=cube;whiteSpace=wrap;html=1;boundedLbl=1;backgroundOutline=1;darkOpacity=0.05;darkOpacity2=0.1;" parent="1" vertex="1">
          <mxGeometry x="80" y="2711" width="140" height="80" as="geometry" />
        </mxCell>
        <mxCell id="3fk1XOqOfCz5VzmiZX5h-98" value="&lt;h1&gt;order container&lt;/h1&gt;" style="shape=cube;whiteSpace=wrap;html=1;boundedLbl=1;backgroundOutline=1;darkOpacity=0.05;darkOpacity2=0.1;" parent="1" vertex="1">
          <mxGeometry x="240" y="2711" width="140" height="80" as="geometry" />
        </mxCell>
        <mxCell id="3fk1XOqOfCz5VzmiZX5h-99" value="&lt;h1&gt;db container&lt;/h1&gt;" style="shape=cube;whiteSpace=wrap;html=1;boundedLbl=1;backgroundOutline=1;darkOpacity=0.05;darkOpacity2=0.1;" parent="1" vertex="1">
          <mxGeometry x="400" y="2711" width="140" height="80" as="geometry" />
        </mxCell>
        <mxCell id="3fk1XOqOfCz5VzmiZX5h-100" value="" style="endArrow=classic;html=1;" parent="1" edge="1">
          <mxGeometry width="50" height="50" relative="1" as="geometry">
            <mxPoint x="-450" y="2731" as="sourcePoint" />
            <mxPoint x="-450" y="2471" as="targetPoint" />
          </mxGeometry>
        </mxCell>
        <mxCell id="3fk1XOqOfCz5VzmiZX5h-101" value="" style="endArrow=classic;html=1;" parent="1" edge="1">
          <mxGeometry width="50" height="50" relative="1" as="geometry">
            <mxPoint x="-460" y="2471" as="sourcePoint" />
            <mxPoint x="530" y="2471" as="targetPoint" />
          </mxGeometry>
        </mxCell>
        <mxCell id="3fk1XOqOfCz5VzmiZX5h-102" value="&lt;h2&gt;Deploy them in the same network&lt;/h2&gt;" style="edgeLabel;html=1;align=center;verticalAlign=middle;resizable=0;points=[];" parent="3fk1XOqOfCz5VzmiZX5h-101" vertex="1" connectable="0">
          <mxGeometry x="-0.0765" y="1" relative="1" as="geometry">
            <mxPoint as="offset" />
          </mxGeometry>
        </mxCell>
        <mxCell id="3fk1XOqOfCz5VzmiZX5h-103" value="&lt;h1&gt;custom bridge network&lt;/h1&gt;" style="edgeLabel;html=1;align=center;verticalAlign=middle;resizable=0;points=[];" parent="3fk1XOqOfCz5VzmiZX5h-101" vertex="1" connectable="0">
          <mxGeometry x="-0.0765" y="1" relative="1" as="geometry">
            <mxPoint x="3" y="40" as="offset" />
          </mxGeometry>
        </mxCell>
        <mxCell id="3fk1XOqOfCz5VzmiZX5h-104" value="" style="endArrow=classic;html=1;" parent="1" edge="1">
          <mxGeometry width="50" height="50" relative="1" as="geometry">
            <mxPoint x="520" y="2481" as="sourcePoint" />
            <mxPoint x="530" y="2731" as="targetPoint" />
          </mxGeometry>
        </mxCell>
        <mxCell id="3fk1XOqOfCz5VzmiZX5h-105" value="" style="endArrow=classic;startArrow=classic;html=1;" parent="1" edge="1">
          <mxGeometry width="50" height="50" relative="1" as="geometry">
            <mxPoint x="540" y="2070" as="sourcePoint" />
            <mxPoint x="530" y="2650" as="targetPoint" />
            <Array as="points">
              <mxPoint x="780" y="2130" />
              <mxPoint x="750" y="2500" />
            </Array>
          </mxGeometry>
        </mxCell>
      </root>
    </mxGraphModel>
  </diagram>
  <diagram id="k76fpeEtRpDhrwxj19tb" name="Page-2">
    <mxGraphModel dx="2032" dy="590" grid="1" gridSize="10" guides="1" tooltips="1" connect="1" arrows="1" fold="1" page="1" pageScale="1" pageWidth="850" pageHeight="1100" math="0" shadow="0">
      <root>
        <mxCell id="5YzLQz3INwJ38rXj_Hxi-0" />
        <mxCell id="5YzLQz3INwJ38rXj_Hxi-1" parent="5YzLQz3INwJ38rXj_Hxi-0" />
        <mxCell id="5YzLQz3INwJ38rXj_Hxi-2" value="Actor" style="shape=umlActor;verticalLabelPosition=bottom;verticalAlign=top;html=1;outlineConnect=0;" parent="5YzLQz3INwJ38rXj_Hxi-1" vertex="1">
          <mxGeometry x="-430" y="140" width="30" height="60" as="geometry" />
        </mxCell>
        <mxCell id="5YzLQz3INwJ38rXj_Hxi-3" value="Actor" style="shape=umlActor;verticalLabelPosition=bottom;verticalAlign=top;html=1;outlineConnect=0;" parent="5YzLQz3INwJ38rXj_Hxi-1" vertex="1">
          <mxGeometry x="-420" y="290" width="30" height="60" as="geometry" />
        </mxCell>
        <mxCell id="5YzLQz3INwJ38rXj_Hxi-4" value="Actor" style="shape=umlActor;verticalLabelPosition=bottom;verticalAlign=top;html=1;outlineConnect=0;" parent="5YzLQz3INwJ38rXj_Hxi-1" vertex="1">
          <mxGeometry x="-410" y="450" width="30" height="60" as="geometry" />
        </mxCell>
        <mxCell id="5YzLQz3INwJ38rXj_Hxi-5" value="&lt;h1&gt;gitHUB boa/rbc/bc remote-repo src/test/bs&lt;/h1&gt;" style="shape=cylinder3;whiteSpace=wrap;html=1;boundedLbl=1;backgroundOutline=1;size=15;" parent="5YzLQz3INwJ38rXj_Hxi-1" vertex="1">
          <mxGeometry x="-70" y="120" width="190" height="220" as="geometry" />
        </mxCell>
        <mxCell id="5YzLQz3INwJ38rXj_Hxi-7" value="" style="endArrow=classic;html=1;rounded=0;" parent="5YzLQz3INwJ38rXj_Hxi-1" source="5YzLQz3INwJ38rXj_Hxi-3" target="5YzLQz3INwJ38rXj_Hxi-5" edge="1">
          <mxGeometry width="50" height="50" relative="1" as="geometry">
            <mxPoint x="-330" y="350" as="sourcePoint" />
            <mxPoint x="-280" y="300" as="targetPoint" />
            <Array as="points">
              <mxPoint x="-310" y="310" />
            </Array>
          </mxGeometry>
        </mxCell>
        <mxCell id="5YzLQz3INwJ38rXj_Hxi-8" value="" style="endArrow=classic;html=1;rounded=0;entryX=0.017;entryY=0.967;entryDx=0;entryDy=0;entryPerimeter=0;" parent="5YzLQz3INwJ38rXj_Hxi-1" source="5YzLQz3INwJ38rXj_Hxi-4" target="5YzLQz3INwJ38rXj_Hxi-5" edge="1">
          <mxGeometry width="50" height="50" relative="1" as="geometry">
            <mxPoint x="-350" y="505" as="sourcePoint" />
            <mxPoint x="-300" y="455" as="targetPoint" />
          </mxGeometry>
        </mxCell>
        <mxCell id="5YzLQz3INwJ38rXj_Hxi-9" value="Actor" style="shape=umlActor;verticalLabelPosition=bottom;verticalAlign=top;html=1;outlineConnect=0;" parent="5YzLQz3INwJ38rXj_Hxi-1" vertex="1">
          <mxGeometry x="460" y="130" width="30" height="60" as="geometry" />
        </mxCell>
        <mxCell id="5YzLQz3INwJ38rXj_Hxi-10" value="Actor" style="shape=umlActor;verticalLabelPosition=bottom;verticalAlign=top;html=1;outlineConnect=0;" parent="5YzLQz3INwJ38rXj_Hxi-1" vertex="1">
          <mxGeometry x="425" y="380" width="30" height="60" as="geometry" />
        </mxCell>
        <mxCell id="5YzLQz3INwJ38rXj_Hxi-11" value="" style="endArrow=classic;html=1;rounded=0;entryX=1.008;entryY=0.821;entryDx=0;entryDy=0;entryPerimeter=0;" parent="5YzLQz3INwJ38rXj_Hxi-1" source="5YzLQz3INwJ38rXj_Hxi-10" target="5YzLQz3INwJ38rXj_Hxi-5" edge="1">
          <mxGeometry width="50" height="50" relative="1" as="geometry">
            <mxPoint x="80" y="370" as="sourcePoint" />
            <mxPoint x="130" y="320" as="targetPoint" />
          </mxGeometry>
        </mxCell>
        <mxCell id="5YzLQz3INwJ38rXj_Hxi-12" value="" style="endArrow=classic;html=1;rounded=0;" parent="5YzLQz3INwJ38rXj_Hxi-1" source="5YzLQz3INwJ38rXj_Hxi-9" target="5YzLQz3INwJ38rXj_Hxi-5" edge="1">
          <mxGeometry width="50" height="50" relative="1" as="geometry">
            <mxPoint x="60" y="200" as="sourcePoint" />
            <mxPoint x="110" y="150" as="targetPoint" />
          </mxGeometry>
        </mxCell>
        <mxCell id="5YzLQz3INwJ38rXj_Hxi-13" value="&lt;h2&gt;LOCAL LocalRepo&amp;nbsp;&lt;/h2&gt;" style="rounded=0;whiteSpace=wrap;html=1;" parent="5YzLQz3INwJ38rXj_Hxi-1" vertex="1">
          <mxGeometry x="-370" y="140" width="130" height="80" as="geometry" />
        </mxCell>
        <mxCell id="5YzLQz3INwJ38rXj_Hxi-14" value="&lt;h1&gt;SCM&amp;nbsp;&lt;/h1&gt;" style="text;html=1;strokeColor=none;fillColor=none;align=center;verticalAlign=middle;whiteSpace=wrap;rounded=0;" parent="5YzLQz3INwJ38rXj_Hxi-1" vertex="1">
          <mxGeometry y="100" width="60" height="70" as="geometry" />
        </mxCell>
        <mxCell id="5YzLQz3INwJ38rXj_Hxi-15" value="&lt;h2&gt;LOCAL LocalRepo&amp;nbsp;&lt;/h2&gt;" style="rounded=0;whiteSpace=wrap;html=1;" parent="5YzLQz3INwJ38rXj_Hxi-1" vertex="1">
          <mxGeometry x="-360" y="280" width="130" height="80" as="geometry" />
        </mxCell>
        <mxCell id="5YzLQz3INwJ38rXj_Hxi-16" value="&lt;h2&gt;LOCAL LocalRepo&amp;nbsp;&lt;/h2&gt;" style="rounded=0;whiteSpace=wrap;html=1;" parent="5YzLQz3INwJ38rXj_Hxi-1" vertex="1">
          <mxGeometry x="-380" y="430" width="130" height="80" as="geometry" />
        </mxCell>
        <mxCell id="5YzLQz3INwJ38rXj_Hxi-17" value="&lt;h2&gt;LOCAL LocalRepo&amp;nbsp;&lt;/h2&gt;" style="rounded=0;whiteSpace=wrap;html=1;" parent="5YzLQz3INwJ38rXj_Hxi-1" vertex="1">
          <mxGeometry x="290" y="350" width="130" height="80" as="geometry" />
        </mxCell>
        <mxCell id="5YzLQz3INwJ38rXj_Hxi-19" value="&lt;h2&gt;LOCAL LocalRepo&amp;nbsp;&lt;/h2&gt;" style="rounded=0;whiteSpace=wrap;html=1;" parent="5YzLQz3INwJ38rXj_Hxi-1" vertex="1">
          <mxGeometry x="320" y="140" width="130" height="80" as="geometry" />
        </mxCell>
        <mxCell id="5YzLQz3INwJ38rXj_Hxi-21" value="&lt;h1&gt;Fintech/boa onboarding create-organisation Teams repositories&amp;nbsp; GITHUB&amp;nbsp;&lt;/h1&gt;" style="rounded=0;whiteSpace=wrap;html=1;" parent="5YzLQz3INwJ38rXj_Hxi-1" vertex="1">
          <mxGeometry x="-80" y="380" width="210" height="200" as="geometry" />
        </mxCell>
        <mxCell id="5YzLQz3INwJ38rXj_Hxi-22" value="" style="endArrow=classic;html=1;rounded=0;" parent="5YzLQz3INwJ38rXj_Hxi-1" target="5YzLQz3INwJ38rXj_Hxi-5" edge="1">
          <mxGeometry width="50" height="50" relative="1" as="geometry">
            <mxPoint x="-250" y="185" as="sourcePoint" />
            <mxPoint x="-200" y="135" as="targetPoint" />
          </mxGeometry>
        </mxCell>
        <mxCell id="391KPi-o-zD0x-adtaxe-0" value="Actor" style="shape=umlActor;verticalLabelPosition=bottom;verticalAlign=top;html=1;outlineConnect=0;" vertex="1" parent="5YzLQz3INwJ38rXj_Hxi-1">
          <mxGeometry x="-400" y="1330" width="30" height="60" as="geometry" />
        </mxCell>
        <mxCell id="391KPi-o-zD0x-adtaxe-1" value="Actor" style="shape=umlActor;verticalLabelPosition=bottom;verticalAlign=top;html=1;outlineConnect=0;" vertex="1" parent="5YzLQz3INwJ38rXj_Hxi-1">
          <mxGeometry x="-390" y="1480" width="30" height="60" as="geometry" />
        </mxCell>
        <mxCell id="391KPi-o-zD0x-adtaxe-2" value="Actor" style="shape=umlActor;verticalLabelPosition=bottom;verticalAlign=top;html=1;outlineConnect=0;" vertex="1" parent="5YzLQz3INwJ38rXj_Hxi-1">
          <mxGeometry x="-380" y="1640" width="30" height="60" as="geometry" />
        </mxCell>
        <mxCell id="391KPi-o-zD0x-adtaxe-3" value="&lt;h1&gt;gitHUB boa/rbc/bc remote-repo src/test/bs&lt;/h1&gt;" style="shape=cylinder3;whiteSpace=wrap;html=1;boundedLbl=1;backgroundOutline=1;size=15;" vertex="1" parent="5YzLQz3INwJ38rXj_Hxi-1">
          <mxGeometry x="-40" y="1310" width="190" height="220" as="geometry" />
        </mxCell>
        <mxCell id="391KPi-o-zD0x-adtaxe-4" value="" style="endArrow=classic;html=1;rounded=0;" edge="1" source="391KPi-o-zD0x-adtaxe-1" target="391KPi-o-zD0x-adtaxe-3" parent="5YzLQz3INwJ38rXj_Hxi-1">
          <mxGeometry width="50" height="50" relative="1" as="geometry">
            <mxPoint x="-300" y="1540" as="sourcePoint" />
            <mxPoint x="-250" y="1490" as="targetPoint" />
            <Array as="points">
              <mxPoint x="-280" y="1500" />
            </Array>
          </mxGeometry>
        </mxCell>
        <mxCell id="391KPi-o-zD0x-adtaxe-5" value="" style="endArrow=classic;html=1;rounded=0;entryX=0.017;entryY=0.967;entryDx=0;entryDy=0;entryPerimeter=0;" edge="1" source="391KPi-o-zD0x-adtaxe-2" target="391KPi-o-zD0x-adtaxe-3" parent="5YzLQz3INwJ38rXj_Hxi-1">
          <mxGeometry width="50" height="50" relative="1" as="geometry">
            <mxPoint x="-320" y="1695" as="sourcePoint" />
            <mxPoint x="-270" y="1645" as="targetPoint" />
          </mxGeometry>
        </mxCell>
        <mxCell id="391KPi-o-zD0x-adtaxe-10" value="&lt;h2&gt;LOCAL LocalRepo&amp;nbsp;&lt;/h2&gt;" style="rounded=0;whiteSpace=wrap;html=1;" vertex="1" parent="5YzLQz3INwJ38rXj_Hxi-1">
          <mxGeometry x="-340" y="1330" width="130" height="80" as="geometry" />
        </mxCell>
        <mxCell id="391KPi-o-zD0x-adtaxe-11" value="&lt;h1&gt;SCM&amp;nbsp;&lt;/h1&gt;" style="text;html=1;strokeColor=none;fillColor=none;align=center;verticalAlign=middle;whiteSpace=wrap;rounded=0;" vertex="1" parent="5YzLQz3INwJ38rXj_Hxi-1">
          <mxGeometry x="30" y="1290" width="60" height="70" as="geometry" />
        </mxCell>
        <mxCell id="391KPi-o-zD0x-adtaxe-12" value="&lt;h2&gt;LOCAL LocalRepo&amp;nbsp;&lt;/h2&gt;" style="rounded=0;whiteSpace=wrap;html=1;" vertex="1" parent="5YzLQz3INwJ38rXj_Hxi-1">
          <mxGeometry x="-330" y="1470" width="130" height="80" as="geometry" />
        </mxCell>
        <mxCell id="391KPi-o-zD0x-adtaxe-13" value="&lt;h2&gt;LOCAL LocalRepo&amp;nbsp;&lt;/h2&gt;" style="rounded=0;whiteSpace=wrap;html=1;" vertex="1" parent="5YzLQz3INwJ38rXj_Hxi-1">
          <mxGeometry x="-350" y="1620" width="130" height="80" as="geometry" />
        </mxCell>
        <mxCell id="391KPi-o-zD0x-adtaxe-17" value="" style="endArrow=classic;html=1;rounded=0;" edge="1" target="391KPi-o-zD0x-adtaxe-3" parent="5YzLQz3INwJ38rXj_Hxi-1">
          <mxGeometry width="50" height="50" relative="1" as="geometry">
            <mxPoint x="-220" y="1375" as="sourcePoint" />
            <mxPoint x="-170" y="1325" as="targetPoint" />
          </mxGeometry>
        </mxCell>
        <mxCell id="391KPi-o-zD0x-adtaxe-18" value="" style="endArrow=classic;html=1;rounded=0;" edge="1" parent="5YzLQz3INwJ38rXj_Hxi-1" source="391KPi-o-zD0x-adtaxe-3" target="391KPi-o-zD0x-adtaxe-19">
          <mxGeometry width="50" height="50" relative="1" as="geometry">
            <mxPoint x="410" y="1730" as="sourcePoint" />
            <mxPoint x="460" y="1680" as="targetPoint" />
          </mxGeometry>
        </mxCell>
        <mxCell id="391KPi-o-zD0x-adtaxe-21" value="Text" style="edgeLabel;html=1;align=center;verticalAlign=middle;resizable=0;points=[];" vertex="1" connectable="0" parent="391KPi-o-zD0x-adtaxe-18">
          <mxGeometry x="-0.0615" y="1" relative="1" as="geometry">
            <mxPoint as="offset" />
          </mxGeometry>
        </mxCell>
        <mxCell id="391KPi-o-zD0x-adtaxe-19" value="&lt;h1&gt;boa fintech&lt;/h1&gt;" style="rounded=0;whiteSpace=wrap;html=1;" vertex="1" parent="5YzLQz3INwJ38rXj_Hxi-1">
          <mxGeometry x="560" y="1380" width="120" height="60" as="geometry" />
        </mxCell>
        <mxCell id="391KPi-o-zD0x-adtaxe-20" value="&lt;h1&gt;application Servers&lt;/h1&gt;" style="text;html=1;strokeColor=none;fillColor=none;align=center;verticalAlign=middle;whiteSpace=wrap;rounded=0;" vertex="1" parent="5YzLQz3INwJ38rXj_Hxi-1">
          <mxGeometry x="580" y="1330" width="60" height="30" as="geometry" />
        </mxCell>
        <mxCell id="391KPi-o-zD0x-adtaxe-22" value="&lt;h2&gt;maven jar/war/ear&lt;/h2&gt;" style="rounded=0;whiteSpace=wrap;html=1;" vertex="1" parent="5YzLQz3INwJ38rXj_Hxi-1">
          <mxGeometry x="320" y="1380" width="120" height="60" as="geometry" />
        </mxCell>
        <mxCell id="391KPi-o-zD0x-adtaxe-23" value="&lt;h2&gt;git pull/clone&lt;/h2&gt;" style="text;html=1;align=center;verticalAlign=middle;resizable=0;points=[];autosize=1;strokeColor=none;fillColor=none;" vertex="1" parent="5YzLQz3INwJ38rXj_Hxi-1">
          <mxGeometry x="160" y="1375" width="130" height="50" as="geometry" />
        </mxCell>
      </root>
    </mxGraphModel>
  </diagram>
  <diagram id="vH4Lhm61PhUiK140JaGy" name="Page-3">
    <mxGraphModel dx="1623" dy="2125" grid="1" gridSize="10" guides="1" tooltips="1" connect="1" arrows="1" fold="1" page="1" pageScale="1" pageWidth="850" pageHeight="1100" math="0" shadow="0">
      <root>
        <mxCell id="k_EVn3nP4RTEG95ET8Ss-0" />
        <mxCell id="k_EVn3nP4RTEG95ET8Ss-1" parent="k_EVn3nP4RTEG95ET8Ss-0" />
        <mxCell id="k_EVn3nP4RTEG95ET8Ss-9" value="&lt;h1&gt;DNS SERVERS Route53 godaddy&lt;/h1&gt;" style="ellipse;shape=cloud;whiteSpace=wrap;html=1;" parent="k_EVn3nP4RTEG95ET8Ss-1" vertex="1">
          <mxGeometry x="-50" y="20" width="200" height="200" as="geometry" />
        </mxCell>
        <mxCell id="k_EVn3nP4RTEG95ET8Ss-10" value="&lt;h1&gt;aws-VPC&lt;/h1&gt;" style="rounded=0;whiteSpace=wrap;html=1;" parent="k_EVn3nP4RTEG95ET8Ss-1" vertex="1">
          <mxGeometry x="1020" y="-190" width="120" height="70" as="geometry" />
        </mxCell>
        <mxCell id="k_EVn3nP4RTEG95ET8Ss-14" value="&lt;h1&gt;Public Subnets&lt;/h1&gt;" style="rounded=0;whiteSpace=wrap;html=1;" parent="k_EVn3nP4RTEG95ET8Ss-1" vertex="1">
          <mxGeometry x="370" y="-120" width="120" height="60" as="geometry" />
        </mxCell>
        <mxCell id="k_EVn3nP4RTEG95ET8Ss-15" value="&lt;h1&gt;Private Subnets&lt;/h1&gt;" style="rounded=0;whiteSpace=wrap;html=1;" parent="k_EVn3nP4RTEG95ET8Ss-1" vertex="1">
          <mxGeometry x="610" y="-115" width="120" height="60" as="geometry" />
        </mxCell>
        <mxCell id="k_EVn3nP4RTEG95ET8Ss-16" value="&lt;h1&gt;mongoDB Service&lt;/h1&gt;" style="rounded=0;whiteSpace=wrap;html=1;" parent="k_EVn3nP4RTEG95ET8Ss-1" vertex="1">
          <mxGeometry x="1180" y="-70" width="120" height="60" as="geometry" />
        </mxCell>
        <mxCell id="k_EVn3nP4RTEG95ET8Ss-17" value="&lt;h1&gt;L.B&lt;/h1&gt;" style="rounded=0;whiteSpace=wrap;html=1;" parent="k_EVn3nP4RTEG95ET8Ss-1" vertex="1">
          <mxGeometry x="430" y="390" width="120" height="60" as="geometry" />
        </mxCell>
        <mxCell id="k_EVn3nP4RTEG95ET8Ss-18" value="" style="endArrow=classic;html=1;rounded=0;" parent="k_EVn3nP4RTEG95ET8Ss-1" target="k_EVn3nP4RTEG95ET8Ss-17" edge="1">
          <mxGeometry width="50" height="50" relative="1" as="geometry">
            <mxPoint x="130" y="430" as="sourcePoint" />
            <mxPoint x="100" y="390" as="targetPoint" />
          </mxGeometry>
        </mxCell>
        <mxCell id="k_EVn3nP4RTEG95ET8Ss-26" value="&lt;h2&gt;2&lt;/h2&gt;" style="edgeLabel;html=1;align=center;verticalAlign=middle;resizable=0;points=[];" parent="k_EVn3nP4RTEG95ET8Ss-18" vertex="1" connectable="0">
          <mxGeometry x="-0.9341" y="1" relative="1" as="geometry">
            <mxPoint as="offset" />
          </mxGeometry>
        </mxCell>
        <mxCell id="k_EVn3nP4RTEG95ET8Ss-19" value="&lt;h2&gt;80&lt;/h2&gt;" style="text;html=1;strokeColor=none;fillColor=none;align=center;verticalAlign=middle;whiteSpace=wrap;rounded=0;" parent="k_EVn3nP4RTEG95ET8Ss-1" vertex="1">
          <mxGeometry x="365" y="395" width="60" height="30" as="geometry" />
        </mxCell>
        <mxCell id="k_EVn3nP4RTEG95ET8Ss-20" value="&lt;h2&gt;443&lt;/h2&gt;" style="text;html=1;strokeColor=none;fillColor=none;align=center;verticalAlign=middle;whiteSpace=wrap;rounded=0;" parent="k_EVn3nP4RTEG95ET8Ss-1" vertex="1">
          <mxGeometry x="370" y="430" width="60" height="30" as="geometry" />
        </mxCell>
        <mxCell id="k_EVn3nP4RTEG95ET8Ss-22" value="&lt;h2&gt;dns lookup&lt;/h2&gt;" style="rounded=0;whiteSpace=wrap;html=1;" parent="k_EVn3nP4RTEG95ET8Ss-1" vertex="1">
          <mxGeometry x="10" y="395" width="120" height="60" as="geometry" />
        </mxCell>
        <mxCell id="k_EVn3nP4RTEG95ET8Ss-23" value="Actor" style="shape=umlActor;verticalLabelPosition=bottom;verticalAlign=top;html=1;outlineConnect=0;" parent="k_EVn3nP4RTEG95ET8Ss-1" vertex="1">
          <mxGeometry x="40" y="455" width="50" height="95" as="geometry" />
        </mxCell>
        <mxCell id="k_EVn3nP4RTEG95ET8Ss-24" value="" style="endArrow=classic;html=1;rounded=0;entryX=0.55;entryY=0.95;entryDx=0;entryDy=0;entryPerimeter=0;" parent="k_EVn3nP4RTEG95ET8Ss-1" target="k_EVn3nP4RTEG95ET8Ss-9" edge="1">
          <mxGeometry width="50" height="50" relative="1" as="geometry">
            <mxPoint x="60" y="395" as="sourcePoint" />
            <mxPoint x="110" y="345" as="targetPoint" />
          </mxGeometry>
        </mxCell>
        <mxCell id="k_EVn3nP4RTEG95ET8Ss-25" value="&lt;h2&gt;1. DNS LOOKUP&lt;/h2&gt;" style="edgeLabel;html=1;align=center;verticalAlign=middle;resizable=0;points=[];" parent="k_EVn3nP4RTEG95ET8Ss-24" vertex="1" connectable="0">
          <mxGeometry x="-0.1324" relative="1" as="geometry">
            <mxPoint as="offset" />
          </mxGeometry>
        </mxCell>
        <mxCell id="k_EVn3nP4RTEG95ET8Ss-27" value="&lt;h2&gt;app.tekglobal.io&lt;/h2&gt;" style="text;html=1;align=center;verticalAlign=middle;resizable=0;points=[];autosize=1;strokeColor=none;fillColor=none;" parent="k_EVn3nP4RTEG95ET8Ss-1" vertex="1">
          <mxGeometry x="155" y="385" width="150" height="50" as="geometry" />
        </mxCell>
        <mxCell id="k_EVn3nP4RTEG95ET8Ss-28" value="&lt;h2&gt;users&lt;/h2&gt;" style="text;html=1;align=center;verticalAlign=middle;resizable=0;points=[];autosize=1;strokeColor=none;fillColor=none;" parent="k_EVn3nP4RTEG95ET8Ss-1" vertex="1">
          <mxGeometry x="-10" y="480" width="60" height="50" as="geometry" />
        </mxCell>
        <mxCell id="k_EVn3nP4RTEG95ET8Ss-29" value="" style="rounded=0;whiteSpace=wrap;html=1;" parent="k_EVn3nP4RTEG95ET8Ss-1" vertex="1">
          <mxGeometry x="670" y="132.5" width="190" height="70" as="geometry" />
        </mxCell>
        <mxCell id="k_EVn3nP4RTEG95ET8Ss-30" value="&lt;h2&gt;k8s-cluster&lt;/h2&gt;" style="text;html=1;align=center;verticalAlign=middle;resizable=0;points=[];autosize=1;strokeColor=none;fillColor=none;" parent="k_EVn3nP4RTEG95ET8Ss-1" vertex="1">
          <mxGeometry x="1030" y="-200" width="110" height="50" as="geometry" />
        </mxCell>
        <mxCell id="k_EVn3nP4RTEG95ET8Ss-31" value="&lt;h1&gt;master&lt;/h1&gt;" style="text;html=1;align=center;verticalAlign=middle;resizable=0;points=[];autosize=1;strokeColor=none;fillColor=none;" parent="k_EVn3nP4RTEG95ET8Ss-1" vertex="1">
          <mxGeometry x="720" y="142.5" width="90" height="50" as="geometry" />
        </mxCell>
        <mxCell id="k_EVn3nP4RTEG95ET8Ss-36" value="" style="endArrow=classic;html=1;rounded=0;entryX=-0.01;entryY=0.438;entryDx=0;entryDy=0;entryPerimeter=0;" parent="k_EVn3nP4RTEG95ET8Ss-1" target="k_EVn3nP4RTEG95ET8Ss-41" edge="1">
          <mxGeometry width="50" height="50" relative="1" as="geometry">
            <mxPoint x="550" y="425" as="sourcePoint" />
            <mxPoint x="770" y="470.294117647059" as="targetPoint" />
          </mxGeometry>
        </mxCell>
        <mxCell id="k_EVn3nP4RTEG95ET8Ss-48" value="&lt;h2&gt;3&lt;/h2&gt;" style="edgeLabel;html=1;align=center;verticalAlign=middle;resizable=0;points=[];" parent="k_EVn3nP4RTEG95ET8Ss-36" vertex="1" connectable="0">
          <mxGeometry x="-0.1422" relative="1" as="geometry">
            <mxPoint as="offset" />
          </mxGeometry>
        </mxCell>
        <mxCell id="k_EVn3nP4RTEG95ET8Ss-37" value="&lt;h1&gt;Ingress Service&lt;/h1&gt;" style="rounded=0;whiteSpace=wrap;html=1;" parent="k_EVn3nP4RTEG95ET8Ss-1" vertex="1">
          <mxGeometry x="710" y="300" width="140" height="80" as="geometry" />
        </mxCell>
        <mxCell id="k_EVn3nP4RTEG95ET8Ss-41" value="&lt;h1&gt;NODE3&lt;/h1&gt;" style="rounded=0;whiteSpace=wrap;html=1;" parent="k_EVn3nP4RTEG95ET8Ss-1" vertex="1">
          <mxGeometry x="1230" y="435" width="410" height="115" as="geometry" />
        </mxCell>
        <mxCell id="k_EVn3nP4RTEG95ET8Ss-42" value="&lt;h1&gt;NODE1&lt;/h1&gt;" style="rounded=0;whiteSpace=wrap;html=1;" parent="k_EVn3nP4RTEG95ET8Ss-1" vertex="1">
          <mxGeometry x="1290" y="110" width="370" height="115" as="geometry" />
        </mxCell>
        <mxCell id="k_EVn3nP4RTEG95ET8Ss-43" value="&lt;h1&gt;Ingress Controller pod&lt;/h1&gt;" style="rounded=0;whiteSpace=wrap;html=1;" parent="k_EVn3nP4RTEG95ET8Ss-1" vertex="1">
          <mxGeometry x="1230" y="355" width="120" height="80" as="geometry" />
        </mxCell>
        <mxCell id="k_EVn3nP4RTEG95ET8Ss-44" value="" style="endArrow=classic;html=1;rounded=0;entryX=0;entryY=0.5;entryDx=0;entryDy=0;exitX=1;exitY=0.25;exitDx=0;exitDy=0;" parent="k_EVn3nP4RTEG95ET8Ss-1" source="k_EVn3nP4RTEG95ET8Ss-37" target="k_EVn3nP4RTEG95ET8Ss-43" edge="1">
          <mxGeometry width="50" height="50" relative="1" as="geometry">
            <mxPoint x="1015" y="355" as="sourcePoint" />
            <mxPoint x="1065" y="305" as="targetPoint" />
          </mxGeometry>
        </mxCell>
        <mxCell id="k_EVn3nP4RTEG95ET8Ss-45" value="&lt;h1&gt;javaApp&amp;nbsp; pod&lt;/h1&gt;" style="rounded=0;whiteSpace=wrap;html=1;" parent="k_EVn3nP4RTEG95ET8Ss-1" vertex="1">
          <mxGeometry x="1510" y="355" width="130" height="80" as="geometry" />
        </mxCell>
        <mxCell id="k_EVn3nP4RTEG95ET8Ss-46" value="&lt;h1&gt;springApp pod&amp;nbsp;&lt;/h1&gt;" style="rounded=0;whiteSpace=wrap;html=1;" parent="k_EVn3nP4RTEG95ET8Ss-1" vertex="1">
          <mxGeometry x="1290" y="30" width="130" height="80" as="geometry" />
        </mxCell>
        <mxCell id="k_EVn3nP4RTEG95ET8Ss-47" value="&lt;h1&gt;mongoDB pod&lt;/h1&gt;" style="rounded=0;whiteSpace=wrap;html=1;" parent="k_EVn3nP4RTEG95ET8Ss-1" vertex="1">
          <mxGeometry x="1530" y="30" width="130" height="80" as="geometry" />
        </mxCell>
        <mxCell id="k_EVn3nP4RTEG95ET8Ss-50" value="" style="endArrow=classic;html=1;rounded=0;exitX=-0.008;exitY=0.143;exitDx=0;exitDy=0;exitPerimeter=0;entryX=1.017;entryY=0.848;entryDx=0;entryDy=0;entryPerimeter=0;" parent="k_EVn3nP4RTEG95ET8Ss-1" source="k_EVn3nP4RTEG95ET8Ss-41" target="k_EVn3nP4RTEG95ET8Ss-37" edge="1">
          <mxGeometry width="50" height="50" relative="1" as="geometry">
            <mxPoint x="880" y="405" as="sourcePoint" />
            <mxPoint x="930" y="355" as="targetPoint" />
          </mxGeometry>
        </mxCell>
        <mxCell id="k_EVn3nP4RTEG95ET8Ss-51" value="&lt;h1&gt;4&lt;/h1&gt;" style="edgeLabel;html=1;align=center;verticalAlign=middle;resizable=0;points=[];" parent="k_EVn3nP4RTEG95ET8Ss-50" vertex="1" connectable="0">
          <mxGeometry x="-0.1349" y="-1" relative="1" as="geometry">
            <mxPoint y="1" as="offset" />
          </mxGeometry>
        </mxCell>
        <mxCell id="k_EVn3nP4RTEG95ET8Ss-52" value="&lt;h1&gt;springApp Service&lt;/h1&gt;" style="rounded=0;whiteSpace=wrap;html=1;" parent="k_EVn3nP4RTEG95ET8Ss-1" vertex="1">
          <mxGeometry x="975" y="100" width="130" height="80" as="geometry" />
        </mxCell>
        <mxCell id="k_EVn3nP4RTEG95ET8Ss-53" value="" style="endArrow=classic;html=1;rounded=0;exitX=0;exitY=0.25;exitDx=0;exitDy=0;" parent="k_EVn3nP4RTEG95ET8Ss-1" source="k_EVn3nP4RTEG95ET8Ss-43" target="k_EVn3nP4RTEG95ET8Ss-52" edge="1">
          <mxGeometry width="50" height="50" relative="1" as="geometry">
            <mxPoint x="1090" y="220" as="sourcePoint" />
            <mxPoint x="1140" y="170" as="targetPoint" />
          </mxGeometry>
        </mxCell>
        <mxCell id="k_EVn3nP4RTEG95ET8Ss-54" value="5" style="edgeLabel;html=1;align=center;verticalAlign=middle;resizable=0;points=[];" parent="k_EVn3nP4RTEG95ET8Ss-53" vertex="1" connectable="0">
          <mxGeometry x="0.1512" y="-1" relative="1" as="geometry">
            <mxPoint as="offset" />
          </mxGeometry>
        </mxCell>
        <mxCell id="k_EVn3nP4RTEG95ET8Ss-55" value="&lt;h1&gt;javaApp&amp;nbsp; service&lt;/h1&gt;" style="rounded=0;whiteSpace=wrap;html=1;" parent="k_EVn3nP4RTEG95ET8Ss-1" vertex="1">
          <mxGeometry x="960" y="210" width="130" height="80" as="geometry" />
        </mxCell>
        <mxCell id="k_EVn3nP4RTEG95ET8Ss-57" value="" style="endArrow=classic;html=1;rounded=0;exitX=0.083;exitY=0.438;exitDx=0;exitDy=0;exitPerimeter=0;" parent="k_EVn3nP4RTEG95ET8Ss-1" source="k_EVn3nP4RTEG95ET8Ss-43" edge="1">
          <mxGeometry width="50" height="50" relative="1" as="geometry">
            <mxPoint x="1010" y="340" as="sourcePoint" />
            <mxPoint x="1060" y="290" as="targetPoint" />
          </mxGeometry>
        </mxCell>
        <mxCell id="k_EVn3nP4RTEG95ET8Ss-58" value="&lt;h2&gt;5&lt;/h2&gt;" style="edgeLabel;html=1;align=center;verticalAlign=middle;resizable=0;points=[];" parent="k_EVn3nP4RTEG95ET8Ss-57" vertex="1" connectable="0">
          <mxGeometry x="0.2805" relative="1" as="geometry">
            <mxPoint as="offset" />
          </mxGeometry>
        </mxCell>
        <mxCell id="k_EVn3nP4RTEG95ET8Ss-60" value="" style="endArrow=classic;html=1;rounded=0;" parent="k_EVn3nP4RTEG95ET8Ss-1" edge="1">
          <mxGeometry width="50" height="50" relative="1" as="geometry">
            <mxPoint x="800" y="840" as="sourcePoint" />
            <mxPoint x="850" y="790" as="targetPoint" />
          </mxGeometry>
        </mxCell>
        <mxCell id="k_EVn3nP4RTEG95ET8Ss-61" value="" style="endArrow=classic;html=1;rounded=0;exitX=-0.014;exitY=0.382;exitDx=0;exitDy=0;exitPerimeter=0;" parent="k_EVn3nP4RTEG95ET8Ss-1" source="k_EVn3nP4RTEG95ET8Ss-46" edge="1">
          <mxGeometry width="50" height="50" relative="1" as="geometry">
            <mxPoint x="1180" y="40" as="sourcePoint" />
            <mxPoint x="1230" y="-10" as="targetPoint" />
          </mxGeometry>
        </mxCell>
        <mxCell id="k_EVn3nP4RTEG95ET8Ss-62" value="" style="endArrow=classic;html=1;rounded=0;entryX=-0.024;entryY=0.602;entryDx=0;entryDy=0;entryPerimeter=0;" parent="k_EVn3nP4RTEG95ET8Ss-1" target="k_EVn3nP4RTEG95ET8Ss-46" edge="1">
          <mxGeometry width="50" height="50" relative="1" as="geometry">
            <mxPoint x="1105" y="145" as="sourcePoint" />
            <mxPoint x="1155" y="95" as="targetPoint" />
          </mxGeometry>
        </mxCell>
        <mxCell id="k_EVn3nP4RTEG95ET8Ss-63" value="&lt;h2&gt;6&lt;/h2&gt;" style="edgeLabel;html=1;align=center;verticalAlign=middle;resizable=0;points=[];" parent="k_EVn3nP4RTEG95ET8Ss-62" vertex="1" connectable="0">
          <mxGeometry x="-0.5567" y="3" relative="1" as="geometry">
            <mxPoint as="offset" />
          </mxGeometry>
        </mxCell>
        <mxCell id="k_EVn3nP4RTEG95ET8Ss-64" value="&lt;h2&gt;6&lt;/h2&gt;" style="edgeLabel;html=1;align=center;verticalAlign=middle;resizable=0;points=[];" parent="k_EVn3nP4RTEG95ET8Ss-62" vertex="1" connectable="0">
          <mxGeometry x="-0.5567" y="3" relative="1" as="geometry">
            <mxPoint x="116" y="-102" as="offset" />
          </mxGeometry>
        </mxCell>
        <mxCell id="k_EVn3nP4RTEG95ET8Ss-65" value="" style="endArrow=classic;html=1;rounded=0;entryX=0.154;entryY=0;entryDx=0;entryDy=0;entryPerimeter=0;" parent="k_EVn3nP4RTEG95ET8Ss-1" target="k_EVn3nP4RTEG95ET8Ss-47" edge="1">
          <mxGeometry width="50" height="50" relative="1" as="geometry">
            <mxPoint x="1300" y="-50" as="sourcePoint" />
            <mxPoint x="1350" y="-100" as="targetPoint" />
          </mxGeometry>
        </mxCell>
        <mxCell id="k_EVn3nP4RTEG95ET8Ss-66" value="&lt;h2&gt;8&lt;/h2&gt;" style="edgeLabel;html=1;align=center;verticalAlign=middle;resizable=0;points=[];" parent="k_EVn3nP4RTEG95ET8Ss-65" vertex="1" connectable="0">
          <mxGeometry x="-0.1459" y="-2" relative="1" as="geometry">
            <mxPoint as="offset" />
          </mxGeometry>
        </mxCell>
        <mxCell id="k_EVn3nP4RTEG95ET8Ss-67" value="&lt;h1&gt;Ingress Rules&lt;/h1&gt;" style="rounded=0;whiteSpace=wrap;html=1;" parent="k_EVn3nP4RTEG95ET8Ss-1" vertex="1">
          <mxGeometry x="890" width="120" height="60" as="geometry" />
        </mxCell>
        <mxCell id="k_EVn3nP4RTEG95ET8Ss-68" value="" style="endArrow=none;html=1;rounded=0;" parent="k_EVn3nP4RTEG95ET8Ss-1" edge="1">
          <mxGeometry width="50" height="50" relative="1" as="geometry">
            <mxPoint x="340" y="560" as="sourcePoint" />
            <mxPoint x="340" y="-130" as="targetPoint" />
          </mxGeometry>
        </mxCell>
        <mxCell id="k_EVn3nP4RTEG95ET8Ss-69" value="" style="endArrow=none;html=1;rounded=0;" parent="k_EVn3nP4RTEG95ET8Ss-1" edge="1">
          <mxGeometry width="50" height="50" relative="1" as="geometry">
            <mxPoint x="340" y="-130" as="sourcePoint" />
            <mxPoint x="1700" y="-140" as="targetPoint" />
          </mxGeometry>
        </mxCell>
        <mxCell id="k_EVn3nP4RTEG95ET8Ss-70" value="" style="endArrow=none;html=1;rounded=0;" parent="k_EVn3nP4RTEG95ET8Ss-1" edge="1">
          <mxGeometry width="50" height="50" relative="1" as="geometry">
            <mxPoint x="600" y="560" as="sourcePoint" />
            <mxPoint x="600" y="-130" as="targetPoint" />
          </mxGeometry>
        </mxCell>
        <mxCell id="k_EVn3nP4RTEG95ET8Ss-71" value="" style="endArrow=none;html=1;rounded=0;" parent="k_EVn3nP4RTEG95ET8Ss-1" edge="1">
          <mxGeometry width="50" height="50" relative="1" as="geometry">
            <mxPoint x="340" y="560" as="sourcePoint" />
            <mxPoint x="1700" y="560" as="targetPoint" />
          </mxGeometry>
        </mxCell>
        <mxCell id="k_EVn3nP4RTEG95ET8Ss-72" value="" style="endArrow=none;html=1;rounded=0;" parent="k_EVn3nP4RTEG95ET8Ss-1" edge="1">
          <mxGeometry width="50" height="50" relative="1" as="geometry">
            <mxPoint x="1700" y="560" as="sourcePoint" />
            <mxPoint x="1700" y="-140" as="targetPoint" />
          </mxGeometry>
        </mxCell>
        <mxCell id="k_EVn3nP4RTEG95ET8Ss-74" value="&lt;h1&gt;JumpServer BastionHost kubectl .kubeConfig&amp;nbsp;&amp;nbsp;&lt;/h1&gt;" style="rounded=0;whiteSpace=wrap;html=1;" parent="k_EVn3nP4RTEG95ET8Ss-1" vertex="1">
          <mxGeometry x="380" y="90" width="190" height="110" as="geometry" />
        </mxCell>
      </root>
    </mxGraphModel>
  </diagram>
  <diagram id="wpFHS92PrsP2Ze30BwtP" name="Page-4">
    <mxGraphModel dx="2069" dy="1033" grid="1" gridSize="10" guides="1" tooltips="1" connect="1" arrows="1" fold="1" page="1" pageScale="1" pageWidth="850" pageHeight="1100" math="0" shadow="0">
      <root>
        <mxCell id="jCtaU2FNtq1qBfbAOG3B-0" />
        <mxCell id="jCtaU2FNtq1qBfbAOG3B-1" parent="jCtaU2FNtq1qBfbAOG3B-0" />
      </root>
    </mxGraphModel>
  </diagram>
</mxfile>
